<svg xmlns="http://www.w3.org/2000/svg" xmlns:xlink="http://www.w3.org/1999/xlink" width="40" height="40" viewBox="0 0 40 40">
    <defs>
        <path id="yvdqogn6rb" d="M0 16V5.295c0-2.761 2.239-5 5-5 .09 0 .179.003.268.007C7.724.434 9.3.5 10 .5c.699 0 2.276-.066 4.732-.198 2.758-.148 5.113 1.968 5.26 4.725.006.09.008.179.008.268V16"/>
        <path id="vm01wgbxxd" d="M24 0v7c0 1.657-1.343 3-3 3H3c-1.657 0-3-1.343-3-3V0"/>
        <path id="2weklh57vf" d="M5.59 5.993c.126.026.227-.025.302-.1.076-.076.127-.203.101-.304-.328-1.718-.328-3.46 0-5.178.026-.127-.025-.228-.1-.303C5.816.032 5.69-.02 5.588.007 3.871.335 2.13.335.411.007.284-.02.183.032.108.107.032.184-.02.31.007.412c.328 1.718.328 3.46 0 5.178-.026.127.025.228.1.303.076.076.203.127.304.101 1.718-.328 3.435-.328 5.178 0z"/>
        <filter id="8gkhjum9ia" width="204.2%" height="212.3%" x="-52.1%" y="-55.5%" filterUnits="objectBoundingBox">
            <feOffset in="SourceAlpha" result="shadowOffsetOuter1"/>
            <feGaussianBlur in="shadowOffsetOuter1" result="shadowBlurOuter1" stdDeviation="3"/>
            <feColorMatrix in="shadowBlurOuter1" result="shadowMatrixOuter1" values="0 0 0 0 0 0 0 0 0 0 0 0 0 0 0 0 0 0 0.05 0"/>
            <feMerge>
                <feMergeNode in="shadowMatrixOuter1"/>
                <feMergeNode in="SourceGraphic"/>
            </feMerge>
        </filter>
    </defs>
    <g fill="none" fill-rule="evenodd">
        <g>
            <g>
                <g fill="#F7F7F7" stroke="#E4E4E4" stroke-width=".5" transform="translate(-323 -96) translate(323 96)">
                    <rect width="39.5" height="39.5" x=".25" y=".25" rx="5"/>
                </g>
                <g filter="url(#8gkhjum9ia)" transform="translate(-323 -96) translate(323 96) translate(8 8)">
                    <g transform="translate(2)">
                        <mask id="bu5285yhwc" fill="#fff">
                            <use xlink:href="#yvdqogn6rb"/>
                        </mask>
                        <use fill="#FFF" stroke="#222" xlink:href="#yvdqogn6rb"/>
                        <path fill="#000" fill-opacity=".05" d="M-4-13C4.333-6 7.833-1.667 6.5 0c-2 2.5-5.5 6-3 9 1.145 1.374 16.2.916 18.5-1 3-2.5 4.144 5.307.5 6.5-2.143.702-8.172.648-18.088-.16H-4V-13z" mask="url(#bu5285yhwc)"/>
                    </g>
                    <g transform="translate(0 12)">
                        <mask id="3gpumzke3e" fill="#fff">
                            <use xlink:href="#vm01wgbxxd"/>
                        </mask>
                        <use fill="#FFF" stroke="#222" xlink:href="#vm01wgbxxd"/>
                        <path fill="#000" fill-opacity=".05" d="M-4-15c6-1 8.333-.667 7 1-2 2.5-3.236 18.51.5 21 1.5 1 17.7.916 20-1 3-2.5 4.144 5.307.5 6.5-2.143.702-8.672.648-19.588-.16H-4V-15z" mask="url(#3gpumzke3e)"/>
                    </g>
                    <path fill="#FFF" stroke="#222" stroke-width=".5" d="M4 12.558c2.051-.41 4.718-.616 8-.616s5.949.205 8 .616"/>
                    <path fill="#FF6738" stroke="#222" d="M17.203 8.386l.023.6.022.676c.033 1.091.06 2.037.239 2.97.036.192.08.382.127.57-.195.009-.395.017-.6.024l-.67.021-.463.015c-.907.03-1.71.071-2.513.225-.192.036-.382.079-.57.127-.009-.195-.017-.395-.024-.6l-.022-.676c-.033-1.091-.06-2.037-.239-2.97-.036-.192-.08-.381-.127-.57.195-.009.395-.017.6-.024l.676-.022c1.091-.033 2.037-.06 2.97-.239.192-.036.381-.08.57-.127z"/>
                </g>
                <path fill="#F8B465" stroke="#222" d="M11 30h2.5v2c0 .552-.448 1-1 1H12c-.552 0-1-.448-1-1v-2h0z" transform="translate(-323 -96) translate(323 96)"/>
                <path fill="#F8B465" stroke="#222" d="M26.5 30H29v2c0 .552-.448 1-1 1h-.5c-.552 0-1-.448-1-1v-2h0z" transform="translate(-323 -96) translate(323 96) matrix(-1 0 0 1 55.5 0)"/>
                <path fill="#FFF" stroke="#222" d="M9.38 21.983H8.06c-2.415 0-3.173-2.763-2.053-4.528.28-.44.675-.818 1.191-1.076 2.586-1.293 5.173.862 5.173 4.31v2.96c0 .52.4.954.919.997 2.91.236 5.147.354 6.71.354 1.562 0 3.76-.137 6.596-.41.513-.05.904-.48.904-.996v-2.973c0-3.449 2.586-5.604 5.172-4.31 2.587 1.292 2.156 5.603-.862 5.603h-1.293" transform="translate(-323 -96) translate(323 96)"/>
                <g transform="translate(-323 -96) translate(323 96) translate(15 16)">
                    <mask id="5qnvbb2ybg" fill="#fff">
                        <use xlink:href="#2weklh57vf"/>
                    </mask>
                    <path stroke="#222" d="M6.066-.606l.023.595L6.122 1c.05 1.652.092 3.082.363 4.495.036.192.077.382.12.572l-.594.022-1.003.032c-1.668.051-3.086.092-4.503.364-.192.036-.382.077-.571.12l-.023-.594L-.122 5C-.172 3.348-.214 1.918-.485.505-.52.313-.562.123-.605-.066l.594-.023L1-.122c1.652-.05 3.082-.092 4.495-.363.192-.036.382-.077.571-.12z"/>
                    <path fill="#000" fill-opacity=".05" d="M-2-8.247c3.362-.56 4.67-.374 3.923.56C.802-6.286.109 2.685 2.203 4.081c.84.56 9.078.514 10.367-.56 1.681-1.401 2.322 2.974.28 3.643-1.2.393-4.58.363-10.136-.09H-2V-8.247z" mask="url(#5qnvbb2ybg)"/>
                </g>
            </g>
        </g>
    </g>
</svg>
