<svg xmlns="http://www.w3.org/2000/svg" xmlns:xlink="http://www.w3.org/1999/xlink" width="40" height="40" viewBox="0 0 40 40">
    <defs>
        <filter id="tfm29mjpqa" width="204.2%" height="213.6%" x="-52.1%" y="-56.8%" filterUnits="objectBoundingBox">
            <feOffset in="SourceAlpha" result="shadowOffsetOuter1"/>
            <feGaussianBlur in="shadowOffsetOuter1" result="shadowBlurOuter1" stdDeviation="3"/>
            <feColorMatrix in="shadowBlurOuter1" result="shadowMatrixOuter1" values="0 0 0 0 0 0 0 0 0 0 0 0 0 0 0 0 0 0 0.05 0"/>
            <feMerge>
                <feMergeNode in="shadowMatrixOuter1"/>
                <feMergeNode in="SourceGraphic"/>
            </feMerge>
        </filter>
        <path id="65fp6baj5b" d="M15 0c1.054 0 1.918.816 1.995 1.85L17 2v3h6c.552 0 1 .448 1 1v15c0 .552-.448 1-1 1H1c-.552 0-1-.448-1-1V6c0-.552.448-1 1-1h6V2C7 .946 7.816.082 8.85.005L9 0h6zm0 2H9v3h6V2z"/>
    </defs>
    <g fill="none" fill-rule="evenodd">
        <g>
            <g>
                <g fill="#F7F7F7" stroke="#E4E4E4" stroke-width=".5" transform="translate(-323 -336) translate(323 336)">
                    <rect width="39.5" height="39.5" x=".25" y=".25" rx="5"/>
                </g>
                <g filter="url(#tfm29mjpqa)" transform="translate(-323 -336) translate(323 336) translate(8 9)">
                    <mask id="1h8z0uue8c" fill="#fff">
                        <use xlink:href="#65fp6baj5b"/>
                    </mask>
                    <use fill="#FFF" stroke="#222" xlink:href="#65fp6baj5b"/>
                    <path stroke="#222" stroke-linecap="square" stroke-width=".5" d="M0.5 10.5L24 10.5" mask="url(#1h8z0uue8c)"/>
                    <path fill="#000" fill-opacity=".05" d="M-2-4c6-1 8.333-.667 7 1-2 2.5-3.236 18.51.5 21 1.5 1 16.2.916 18.5-1 3-2.5 4.144 5.307.5 6.5-2.143.702-8.172.648-18.088-.16H-2V-4z" mask="url(#1h8z0uue8c)"/>
                    <rect width="6.167" height="4.5" x="14.583" y="14.25" fill="#FF6738" stroke="#222" stroke-width=".5" mask="url(#1h8z0uue8c)" rx="1"/>
                </g>
            </g>
        </g>
    </g>
</svg>
