<svg xmlns="http://www.w3.org/2000/svg" xmlns:xlink="http://www.w3.org/1999/xlink" width="40" height="40" viewBox="0 0 40 40">
    <defs>
        <path id="sffzdjmgrb" d="M2.5 8.5h16.208c.464 0 .867-.32.973-.771L21.355.615c.064-.27-.103-.538-.372-.602C20.946.004 20.907 0 20.87 0H0"/>
        <path id="20i14teqqd" d="M0 0H8V5H0z"/>
        <path id="ncglus49xf" d="M0 0H6V3H0z"/>
        <filter id="j8sfh9e2wa" width="195.6%" height="198%" x="-48.1%" y="-50%" filterUnits="objectBoundingBox">
            <feOffset in="SourceAlpha" result="shadowOffsetOuter1"/>
            <feGaussianBlur in="shadowOffsetOuter1" result="shadowBlurOuter1" stdDeviation="3"/>
            <feColorMatrix in="shadowBlurOuter1" result="shadowMatrixOuter1" values="0 0 0 0 0 0 0 0 0 0 0 0 0 0 0 0 0 0 0.05 0"/>
            <feMerge>
                <feMergeNode in="shadowMatrixOuter1"/>
                <feMergeNode in="SourceGraphic"/>
            </feMerge>
        </filter>
    </defs>
    <g fill="none" fill-rule="evenodd">
        <g>
            <g>
                <g fill="#F7F7F7" stroke="#E4E4E4" stroke-width=".5" transform="translate(-323 -240) translate(323 240)">
                    <rect width="39.5" height="39.5" x=".25" y=".25" rx="5"/>
                </g>
                <g filter="url(#j8sfh9e2wa)" transform="translate(-323 -240) translate(323 240) translate(6 8)">
                    <g transform="translate(4.5 5)">
                        <mask id="1v89c04lzc" fill="#fff">
                            <use xlink:href="#sffzdjmgrb"/>
                        </mask>
                        <use fill="#FFF" stroke="#222" stroke-linecap="round" xlink:href="#sffzdjmgrb"/>
                        <path fill="#000" fill-opacity=".05" d="M-3.5-16c2.667-2.333 4.333-2.333 5 0C2.5-12.5.264 3.51 4 6c1.5 1 20.5-1.333 20.5 1.5 0 4.44-6.53 5.72-19.588 3.84H-3.5V-16z" mask="url(#1v89c04lzc)"/>
                    </g>
                    <g transform="translate(8)">
                        <mask id="1ryzpzon9e" fill="#fff">
                            <use xlink:href="#20i14teqqd"/>
                        </mask>
                        <use fill="#FF6738" stroke="#222" xlink:href="#20i14teqqd"/>
                        <path fill="#000" fill-opacity=".05" d="M-1.84-10.77c1.604-1.402 2.606-1.402 3.007 0C1.768-8.663.423.965 2.671 2.463c.902.602 12.329-.8 12.329.903 0 2.67-3.927 3.44-11.78 2.309h-5.06V-10.77z" mask="url(#1ryzpzon9e)"/>
                    </g>
                    <g transform="translate(16 2)">
                        <mask id="gg1we6ojfg" fill="#fff">
                            <use xlink:href="#ncglus49xf"/>
                        </mask>
                        <use fill="#FF6738" stroke="#222" xlink:href="#ncglus49xf"/>
                        <path fill="#000" fill-opacity=".05" d="M0 0H3V4H0z" mask="url(#gg1we6ojfg)"/>
                    </g>
                    <ellipse cx="21.75" cy="22.17" fill="#FFF" stroke="#222" rx="2.286" ry="2.33"/>
                    <ellipse cx="8.893" cy="22.17" fill="#FFF" stroke="#222" rx="2.286" ry="2.33"/>
                    <path stroke="#222" stroke-linecap="round" d="M0 2h3.25l4.642 15.147c.064.21.258.353.478.353h14.023"/>
                </g>
                <path stroke="#222" stroke-linecap="square" stroke-width=".5" d="M17 13.5L17.5 21.5M25 13.5L24.5 21.5M12 17.5L31 17.5" transform="translate(-323 -240) translate(323 240)"/>
            </g>
        </g>
    </g>
</svg>
