<svg xmlns="http://www.w3.org/2000/svg" xmlns:xlink="http://www.w3.org/1999/xlink" width="40" height="40" viewBox="0 0 40 40">
    <defs>
        <path id="hm2mpeydqb" d="M1 0h17c.552 0 1 .448 1 1v14.5c0 .552-.448 1-1 1H1c-.552 0-1-.448-1-1V1c0-.552.448-1 1-1z"/>
        <path id="hrkla1cgvd" d="M12.467.506c.735-.735 2-.66 2.827.166.826.826.9 2.092.166 2.827l-4.515 4.514c.07.18.135.372.198.577.571 1.866.857 3.466.857 4.8H0c0-1.6.286-3.2.857-4.8.857-2.4 2.303-3.2 5.143-3.2.412 0 .794.008 1.15.031z"/>
        <filter id="mcbl0c4jua" width="196.1%" height="196.1%" x="-47.1%" y="-49%" filterUnits="objectBoundingBox">
            <feOffset in="SourceAlpha" result="shadowOffsetOuter1"/>
            <feGaussianBlur in="shadowOffsetOuter1" result="shadowBlurOuter1" stdDeviation="3"/>
            <feColorMatrix in="shadowBlurOuter1" result="shadowMatrixOuter1" values="0 0 0 0 0 0 0 0 0 0 0 0 0 0 0 0 0 0 0.05 0"/>
            <feMerge>
                <feMergeNode in="shadowMatrixOuter1"/>
                <feMergeNode in="SourceGraphic"/>
            </feMerge>
        </filter>
        <circle id="d0vw647tkf" cx="4" cy="4" r="4"/>
    </defs>
    <g fill="none" fill-rule="evenodd">
        <g>
            <g>
                <g fill="#F7F7F7" stroke="#E4E4E4" stroke-width=".5" transform="translate(-227 -336) translate(227 336)">
                    <rect width="39.5" height="39.5" x=".25" y=".25" rx="5"/>
                </g>
                <g>
                    <g filter="url(#mcbl0c4jua)" transform="translate(-227 -336) translate(227 336) matrix(-1 0 0 1 33.5 7.5)">
                        <path stroke="#222" stroke-linecap="round" d="M4.5 8.032V1c0-.552.448-1 1-1h19c.552 0 1 .448 1 1v16.5c0 .552-.448 1-1 1h-8 0"/>
                        <g transform="translate(5.5 1)">
                            <mask id="ztjis7g22c" fill="#fff">
                                <use xlink:href="#hm2mpeydqb"/>
                            </mask>
                            <use fill="#FFF" xlink:href="#hm2mpeydqb"/>
                            <path fill="#000" fill-opacity=".05" d="M-6.5-8.5c2.667-2.333 4.333-2.333 5 0 1 3.5-1.236 19.51 2.5 22 1.5 1 20.5-1.333 20.5 1.5 0 4.44-6.53 5.72-19.588 3.84H-6.5V-8.5z" mask="url(#ztjis7g22c)" transform="matrix(-1 0 0 1 15 0)"/>
                        </g>
                        <g transform="translate(0 12.11)">
                            <mask id="stev9x07ie" fill="#fff">
                                <use xlink:href="#hrkla1cgvd"/>
                            </mask>
                            <path stroke="#222" d="M13.678.5l.139.003c.398.023.803.202 1.123.522.303.304.48.682.518 1.058.035.346-.047.69-.261.961h0l-4.842 4.852c.112.25.215.53.31.84.444 1.451.713 2.736.802 3.855h0L.51 12.876c.055-1.373.328-2.745.818-4.118.376-1.054.867-1.775 1.587-2.223C3.678 6.06 4.678 5.89 6 5.89c.483 0 .925.011 1.33.046h0l5.484-5.07c.266-.27.632-.385 1.003-.363z"/>
                            <path fill="#000" fill-opacity=".08" d="M-1 4.39c5.52-2.158 8.853-2.491 10-1-5.5 3-3.369 6.787-2.766 10.404.402 2.411-2.01 2.09-7.234-.965V4.39z" mask="url(#stev9x07ie)"/>
                        </g>
                    </g>
                    <g transform="translate(-227 -336) translate(227 336) matrix(-1 0 0 1 33.5 7.5) translate(2 10.5)">
                        <mask id="bvv9dq08hg" fill="#fff">
                            <use xlink:href="#d0vw647tkf"/>
                        </mask>
                        <use fill="#FFF" stroke="#222" xlink:href="#d0vw647tkf"/>
                        <path fill="#000" fill-opacity=".08" d="M-1-1c5.28.61 7.26.81 5.94.599-1.306-.21-3.265 2.993-2.332 5.088.831 1.867 3.11 1.796 5.08 1.615C9.013 6.18 6.118 7.079-1 9V-1z" mask="url(#bvv9dq08hg)"/>
                    </g>
                    <path stroke="#FF6738" stroke-width="1.5" d="M13.5 5L21.5 5M11.5 9L21.5 9M18.5 13L21.5 13" transform="translate(-227 -336) translate(227 336) matrix(-1 0 0 1 33.5 7.5)"/>
                </g>
            </g>
        </g>
    </g>
</svg>
